<?xml version="1.0" standalone="no"?>
<!DOCTYPE svg PUBLIC "-//W3C//DTD SVG 20010904//EN"
 "http://www.w3.org/TR/2001/REC-SVG-20010904/DTD/svg10.dtd">
<svg version="1.0" xmlns="http://www.w3.org/2000/svg"
 width="993.000000pt" height="851.000000pt" viewBox="0 0 993.000000 851.000000"
 preserveAspectRatio="xMidYMid meet">

<g transform="translate(0.000000,851.000000) scale(0.100000,-0.100000)"
fill="#000000" stroke="none">
<path d="M0 4255 l0 -4255 4965 0 4965 0 0 4255 0 4255 -4965 0 -4965 0 0
-4255z m4795 3886 c551 -96 997 -324 1381 -706 400 -398 649 -907 726 -1485
21 -161 11 -650 -14 -676 -2 -1 -52 12 -112 31 -120 39 -292 76 -436 97 -122
17 -505 17 -625 0 -446 -64 -818 -211 -1168 -462 -42 -30 -77 -58 -77 -61 0
-3 43 -44 96 -90 183 -159 382 -399 505 -609 35 -60 68 -109 73 -109 5 -1 385
192 845 428 460 236 1009 517 1220 625 l384 196 1148 0 c1142 0 1149 0 1149
-20 0 -20 -7 -20 -1144 -20 l-1145 0 -428 -221 c-235 -122 -783 -404 -1218
-627 -434 -223 -791 -406 -793 -407 -1 -1 18 -44 42 -96 24 -52 61 -139 81
-194 45 -121 107 -365 103 -402 -3 -24 -13 -31 -88 -61 -301 -117 -618 -169
-979 -159 -272 7 -488 43 -708 118 -46 15 -85 25 -87 21 -14 -24 -28 -298 -23
-452 13 -377 94 -706 256 -1035 155 -316 375 -600 635 -823 52 -43 58 -52 47
-66 -25 -30 -266 -185 -381 -245 -527 -275 -1135 -355 -1720 -225 -274 61
-608 203 -838 357 -594 398 -977 992 -1103 1712 -30 170 -37 501 -15 687 102
878 625 1622 1409 2004 48 23 92 44 98 46 6 2 4 50 -7 138 -20 168 -15 520 11
680 170 1065 980 1903 2030 2100 183 34 250 39 505 35 193 -2 271 -7 365 -24z
m1556 -5531 c27 -69 48 -131 49 -137 0 -27 -30 -11 -44 22 -15 34 -17 35 -70
35 -54 0 -56 -1 -70 -35 -14 -32 -46 -49 -46 -25 0 8 32 95 91 248 18 48 41
21 90 -108z m269 85 c0 -18 5 -25 20 -25 11 0 20 -7 20 -15 0 -8 -9 -15 -20
-15 -18 0 -20 -7 -20 -71 0 -62 2 -71 20 -76 29 -8 25 -33 -4 -33 -39 0 -56
35 -56 112 0 54 -3 68 -15 68 -8 0 -15 7 -15 15 0 8 7 15 15 15 8 0 15 8 15
18 0 22 8 32 27 32 7 0 13 -11 13 -25z m-150 -37 c0 -9 3 -9 12 0 18 18 48 15
48 -6 0 -11 -8 -18 -22 -19 -31 -3 -38 -20 -38 -101 0 -65 -2 -73 -17 -70 -16
3 -18 17 -21 106 -3 97 -2 102 18 102 11 0 20 -5 20 -12z"/>
<path d="M6266 2634 c-22 -64 -22 -64 24 -64 l40 0 -21 53 c-11 28 -22 53 -24
55 -1 2 -10 -18 -19 -44z"/>
</g>
</svg>
